<svg xmlns="http://www.w3.org/2000/svg" xmlns:xlink="http://www.w3.org/1999/xlink" viewBox="0 0 40 40"><defs><style>.cls-1{fill:url(#Degradado_sin_nombre_76);}.cls-2{fill:#fff;}</style><linearGradient id="Degradado_sin_nombre_76" x1="3.92" y1="-11.57" x2="44.84" y2="68.76" gradientUnits="userSpaceOnUse"><stop offset="0.22" stop-color="#7f7fe1"/><stop offset="0.94" stop-color="#5454bb"/></linearGradient></defs><title>certificados</title><g id="Capa_2" data-name="Capa 2"><g id="Capa_1-2" data-name="Capa 1"><rect class="cls-1" width="40" height="40" rx="8.25"/><path class="cls-2" d="M22.61,30a.78.78,0,0,1-.47-.84c0-.59,0-1.19,0-1.79,0-.18,0-.17-.17-.17h-8a1.36,1.36,0,0,1-.87-.26,1.31,1.31,0,0,1-.57-1V11.51a2,2,0,0,1,.07-.54A1.33,1.33,0,0,1,13.81,10H24.74a1.45,1.45,0,0,1,.79.19,1.34,1.34,0,0,1,.66,1.12,1.47,1.47,0,0,1,0,.21v6.52a.66.66,0,0,1,0,.14c0,.08,0,.12.11.15a5.39,5.39,0,0,1,.8.39A4,4,0,0,1,27.85,25a.36.36,0,0,0-.1.28c0,1.29,0,2.58,0,3.87a.78.78,0,0,1-.48.82H27l-.33-.18-1.55-.89a.22.22,0,0,0-.27,0L22.93,30ZM13.74,18.59v7.08c0,.24,0,.25.24.25h7.94a.48.48,0,0,1,.12,0c.08,0,.11,0,.11-.11a5,5,0,0,1,0-.55A.34.34,0,0,0,22,25a3.88,3.88,0,0,1-1.12-2.54,4,4,0,0,1,1.66-3.52,3.9,3.9,0,0,1,2.23-.77c.17,0,.15,0,.15-.17v-6.4c0-.29,0-.29-.29-.29H14c-.29,0-.29,0-.29.29ZM25,19.38a2.8,2.8,0,1,0,2.8,2.81A2.8,2.8,0,0,0,25,19.38Zm-1.56,7.68v1.06c0,.14,0,.15.13.08l1-.59a.69.69,0,0,1,.8,0l.94.54.12.07c.09.05.1,0,.1-.07V26s0-.07-.07,0l-.11,0a4,4,0,0,1-1.37.24A3.74,3.74,0,0,1,23.55,26c-.16,0-.16,0-.16.12Z"/><path class="cls-2" d="M18.88,14.39H16.31a.9.9,0,0,1-.28,0,.62.62,0,0,1-.42-.65.65.65,0,0,1,.57-.55h5.46a.63.63,0,0,1,.5.65.62.62,0,0,1-.58.58H18.88Z"/><path class="cls-2" d="M18.87,15.64h2.59a.64.64,0,0,1,.4.11.62.62,0,0,1,.27.66.63.63,0,0,1-.55.47,1.08,1.08,0,0,1-.18,0c-1.68,0-3.37,0-5,0a1.05,1.05,0,0,1-.31,0,.62.62,0,0,1-.43-.66.64.64,0,0,1,.58-.55h2.68Z"/><path class="cls-2" d="M17.8,18.13h1.49a.76.76,0,0,1,.39.1.63.63,0,0,1,.27.66.64.64,0,0,1-.55.48H16.31l-.21,0a.63.63,0,0,1-.49-.66.64.64,0,0,1,.61-.57H17.8Z"/><path class="cls-2" d="M26.53,21.3a2.67,2.67,0,0,1-.14.34c-.41.62-.81,1.23-1.23,1.84a.6.6,0,0,1-.87.18L23.35,23a.62.62,0,0,1-.16-.86A.61.61,0,0,1,24,22a3,3,0,0,1,.33.21c.08.06.12.05.18,0,.22-.35.46-.7.69-1a2.33,2.33,0,0,1,.17-.26.62.62,0,0,1,.7-.19A.69.69,0,0,1,26.53,21.3Z"/></g></g></svg>