<svg xmlns="http://www.w3.org/2000/svg" xmlns:xlink="http://www.w3.org/1999/xlink" viewBox="0 0 40 40"><defs><style>.cls-1{fill:url(#Degradado_sin_nombre_108);}.cls-2{fill:#fff;}</style><linearGradient id="Degradado_sin_nombre_108" x1="13.61" y1="-3.46" x2="32.18" y2="64.75" gradientUnits="userSpaceOnUse"><stop offset="0.28" stop-color="#0080ff"/><stop offset="0.99" stop-color="#005baf"/></linearGradient></defs><title>empresas</title><g id="Capa_2" data-name="Capa 2"><g id="Capa_1-2" data-name="Capa 1"><rect class="cls-1" width="40" height="40" rx="8.25"/><path class="cls-2" d="M29.94,29.29v.31l-.09.14a.54.54,0,0,1-.44.28H10.54a.56.56,0,0,1-.42-.24.57.57,0,0,1,0-.59.56.56,0,0,1,.51-.33H11c.24,0,.24,0,.24-.25v-18a.59.59,0,0,1,.31-.49l.16-.07h.23l.16.06,1.87.7,4.52,1.7,2.79,1a1.28,1.28,0,0,1,.28.16.62.62,0,0,1,.19.5V16c0,.15,0,.15.14.18l0,0,6.11,2,.36.13a.57.57,0,0,1,.35.44,1,1,0,0,1,0,.25v9.65c0,.12,0,.12.12.12h.5a.58.58,0,0,1,.52.32Zm-17.55-9.1v8.53c0,.13,0,.14.13.14h.9c.13,0,.13,0,.14-.14v-.11c0-.87,0-1.74,0-2.61a.63.63,0,0,1,.65-.65c.41,0,.81,0,1.22,0h3.29a1.06,1.06,0,0,1,.25,0,.57.57,0,0,1,.43.58c0,.56,0,1.12,0,1.69v1.09c0,.12,0,.12.12.12h.82c.23,0,.23,0,.23-.24V14.73c0-.17,0-.14-.14-.19l-3.17-1.19-4.63-1.74-.21-.07c0,.08,0,.15,0,.23Zm9.34,2.93v5.64c0,.08,0,.1.1.1h.86c.24,0,.21,0,.21-.2,0-.89,0-1.78,0-2.67a.63.63,0,0,1,.63-.64h2.26a.62.62,0,0,1,.19,0,.57.57,0,0,1,.43.58v2.8c0,.08,0,.1.1.1h.89c.2,0,.18,0,.18-.18V19.54c0-.19,0-.19-.18-.24l0,0-5.43-1.8c-.2-.07-.2-.07-.2.14Zm-5.84,4.59V26.62c0-.06,0-.1-.08-.1-.34,0-.67,0-1,0-.06,0-.08,0-.08.08s0,.33,0,.49v1.65c0,.12,0,.12.12.12h.94c.11,0,.11,0,.11-.12Zm2.34,0V26.62c0-.07,0-.1-.1-.1-.32,0-.65,0-1,0-.08,0-.1,0-.1.1v2.14c0,.1,0,.1.11.1h.94c.11,0,.12,0,.12-.12Zm7,0V26.63c0-.1,0-.11-.11-.11h-.95c-.1,0-.11,0-.11.11v2.12c0,.1,0,.11.11.11h.95c.11,0,.11,0,.11-.11Z"/><path class="cls-2" d="M14.71,17.18c-.19,0-.38,0-.58,0a.59.59,0,0,1-.47-.91A.52.52,0,0,1,14.1,16h1.25a.57.57,0,0,1,.54.57.58.58,0,0,1-.55.59c-.21,0-.42,0-.63,0Z"/><path class="cls-2" d="M18.22,17.18c-.19,0-.39,0-.58,0a.55.55,0,0,1-.51-.32.55.55,0,0,1,0-.6A.53.53,0,0,1,17.6,16h1.24a.58.58,0,0,1,0,1.16c-.2,0-.41,0-.62,0Z"/><path class="cls-2" d="M14.71,19.52h-.58a.57.57,0,0,1-.5-.31.58.58,0,0,1,0-.61.54.54,0,0,1,.44-.24c.42,0,.83,0,1.24,0a.57.57,0,0,1,.55.57.59.59,0,0,1-.55.59Z"/><path class="cls-2" d="M18.22,19.52h-.58a.58.58,0,0,1-.51-.31.56.56,0,0,1,0-.6.52.52,0,0,1,.44-.25c.42,0,.83,0,1.24,0a.58.58,0,0,1,0,1.15Z"/><path class="cls-2" d="M14.71,21.85h-.58a.59.59,0,0,1-.47-.91.52.52,0,0,1,.44-.25c.42,0,.83,0,1.25,0a.57.57,0,0,1,.54.57.58.58,0,0,1-.55.59Z"/><path class="cls-2" d="M18.23,20.69c.2,0,.39,0,.59,0a.56.56,0,0,1,.51.32.57.57,0,0,1,0,.59.53.53,0,0,1-.44.25H17.61a.58.58,0,0,1,0-1.16c.21,0,.42,0,.62,0Z"/><path class="cls-2" d="M14.73,23h.59a.59.59,0,0,1,.52.35.55.55,0,0,1-.09.61.49.49,0,0,1-.4.2c-.42,0-.83,0-1.25,0a.56.56,0,0,1-.54-.57.59.59,0,0,1,.55-.59Z"/><path class="cls-2" d="M18.23,24.19h-.6a.58.58,0,0,1-.57-.58.57.57,0,0,1,.53-.58c.42,0,.85,0,1.27,0a.58.58,0,0,1,0,1.15Z"/><path class="cls-2" d="M24.64,21.85H23.47a.58.58,0,0,1-.57-.58.58.58,0,0,1,.52-.58h2.35a.56.56,0,0,1,.51.23.55.55,0,0,1,.06.6.57.57,0,0,1-.52.33H24.64Z"/><path class="cls-2" d="M24.64,24.19H23.5A.59.59,0,0,1,23.42,23h2.37a.58.58,0,0,1,.55.33.59.59,0,0,1-.51.84H24.64Z"/></g></g></svg>