<?xml version="1.0" standalone="no"?>
<!DOCTYPE svg PUBLIC "-//W3C//DTD SVG 1.0//EN" "http://www.w3.org/TR/2001/REC-SVG-20010904/DTD/svg10.dtd">
<svg xmlns="http://www.w3.org/2000/svg" xmlns:xlink="http://www.w3.org/1999/xlink" id="body_1" width="55" height="55">

<g transform="matrix(0.2972973 0 0 0.2972973 0 0)">
	<g transform="matrix(0.4983836 0 0 0.4983836 -66.7834 -0)">
		<g transform="matrix(0.1 0 -0 -0.1 0 640)">
            <path d="M3051 6265L2938 6150L2748 6150L2559 6150L2422 6015L2285 5880L2123 5880L1960 5880L1960 5718L1960 5555L1825 5419L1690 5283L1690 5093L1690 4903L1580 4795C 1520 4735 1470 4681 1470 4675C 1470 4669 1520 4615 1580 4555L1580 4555L1690 4445L1690 4255L1690 4065L1825 3930L1960 3795L1960 3633L1960 3470L2103 3469C 2181 3469 2255 3467 2268 3466C 2283 3464 2341 3414 2423 3332L2423 3332L2555 3200L2745 3200L2935 3200L3052 3083L3170 2965L3288 3083L3405 3200L3595 3200L3785 3200L3920 3335L4055 3470L4217 3470L4380 3470L4380 3632L4380 3794L4515 3930L4650 4067L4650 4256L4650 4445L4762 4557L4873 4668L4849 4697C 4836 4712 4785 4763 4737 4810L4737 4810L4650 4895L4650 5086L4650 5276L4515 5411L4380 5545L4380 5713L4380 5880L4213 5880L4046 5880L3911 6015L3776 6150L3585 6150L3395 6150L3280 6265L3165 6380L3051 6265zM3245 6030L3314 5960L3505 5960L3695 5960L3830 5825L3964 5691L4075 5688L4185 5685L4188 5575L4191 5465L4325 5332L4460 5199L4460 5009L4460 4819L4530 4747C 4569 4708 4600 4673 4600 4670C 4600 4667 4569 4633 4530 4595L4530 4595L4460 4526L4460 4335L4460 4145L4325 4010L4190 3875L4190 3768L4190 3660L4082 3660L3975 3660L3840 3525L3705 3390L3515 3390L3325 3390L3248 3313L3171 3236L3091 3313L3012 3390L2824 3390L2635 3390L2500 3525L2365 3660L2258 3660L2150 3660L2150 3768L2150 3875L2015 4010L1880 4145L1880 4335L1880 4525L1805 4600L1730 4675L1805 4750L1880 4824L1880 5014L1880 5203L2015 5340L2150 5476L2150 5583L2150 5690L2257 5690L2364 5690L2500 5825L2637 5960L2827 5960L3017 5960L3088 6030C 3127 6069 3163 6100 3167 6100C 3172 6100 3207 6069 3245 6030z" stroke="none" fill="#000000" fill-rule="nonzero" />
            <path d="M3130 5995L3096 5960L3170 5960L3244 5960L3210 5995C 3191 6014 3173 6030 3170 6030C 3167 6030 3149 6014 3130 5995z" stroke="none" fill="#000000" fill-rule="nonzero" />
            <path d="M2550 5795L2445 5690L2495 5690C 2543 5691 2548 5694 2620 5760L2620 5760L2695 5830L2790 5830C 2881 5831 2886 5832 2918 5860C 2935 5876 2950 5892 2950 5895C 2950 5898 2884 5900 2802 5900L2802 5900L2655 5900L2550 5795z" stroke="none" fill="#000000" fill-rule="nonzero" />
            <path d="M3000 5865L2966 5830L3163 5830C 3271 5830 3360 5833 3360 5837C 3360 5841 3348 5857 3333 5872C 3306 5900 3306 5900 3170 5900L3170 5900L3034 5900L3000 5865z" stroke="none" fill="#000000" fill-rule="nonzero" />
            <path d="M3410 5865L3444 5830L3545 5830L3646 5830L3715 5760C 3782 5693 3786 5690 3832 5690C 3859 5690 3880 5693 3880 5698C 3880 5702 3836 5749 3782 5803L3782 5803L3685 5900L3530 5900L3376 5900L3410 5865z" stroke="none" fill="#000000" fill-rule="nonzero" />
            <path d="M2670 5735L2626 5690L2687 5690C 2745 5690 2752 5692 2790 5728C 2812 5750 2827 5770 2823 5773C 2820 5777 2794 5780 2765 5780C 2718 5780 2711 5777 2670 5735z" stroke="none" fill="#000000" fill-rule="nonzero" />
            <path d="M2870 5735L2826 5690L3163 5690C 3351 5690 3500 5694 3500 5699C 3500 5704 3482 5724 3460 5744L3460 5744L3420 5780L3167 5780L2914 5780L2870 5735z" stroke="none" fill="#000000" fill-rule="nonzero" />
            <path d="M3510 5771C 3510 5766 3528 5746 3550 5726C 3586 5694 3596 5690 3645 5690C 3675 5690 3700 5694 3700 5698C 3700 5702 3683 5723 3662 5743C 3627 5777 3619 5780 3567 5780C 3536 5780 3510 5776 3510 5771z" stroke="none" fill="#000000" fill-rule="nonzero" />
            <path d="M2243 5633L2200 5629L2200 5584C 2200 5560 2203 5540 2208 5540C 2219 5540 2300 5620 2300 5631C 2300 5636 2297 5639 2293 5638C 2288 5637 2266 5635 2243 5633z" stroke="none" fill="#000000" fill-rule="nonzero" />
            <path d="M2297 5540L2199 5444L2202 5396L2205 5348L2344 5484C 2420 5560 2480 5624 2476 5627C 2473 5630 2453 5634 2433 5634C 2398 5636 2387 5628 2297 5540z" stroke="none" fill="#000000" fill-rule="nonzero" />
            <path d="M2584 5632C 2573 5630 2482 5547 2381 5446L2381 5446L2199 5264L2202 5207L2205 5150L2443 5387C 2573 5517 2680 5626 2680 5629C 2680 5636 2623 5638 2584 5632z" stroke="none" fill="#000000" fill-rule="nonzero" />
            <path d="M2488 5350L2200 5065L2200 4670L2200 4275L2484 3993L2767 3710L3167 3710L3566 3710L3848 3992L4130 4274L4130 4674L4130 5075L3853 5352L3575 5630L3175 5632L2775 5635L2488 5350zM3580 5231C 3580 5225 3419 5221 3183 5221C 2964 5221 2779 5220 2773 5220C 2763 5220 2760 5105 2757 4698L2757 4698L2755 4175L2752 4708L2750 5240L3165 5240C 3412 5240 3580 5236 3580 5231zM3558 4704L3560 4202L3538 4196C 3508 4188 2806 4188 2786 4196C 2772 4201 2770 4255 2770 4699C 2770 4973 2773 5200 2777 5203C 2781 5207 2957 5209 3169 5208L3169 5208L3555 5205L3558 4704z" stroke="none" fill="#000000" fill-rule="nonzero" />
            <path d="M3307 5092C 3201 5091 3141 5086 3145 5080C 3153 5067 3487 5067 3494 5079C 3503 5094 3483 5095 3307 5092z" stroke="none" fill="#000000" fill-rule="nonzero" />
            <path d="M3145 5050C 3142 5044 3145 5038 3152 5035C 3177 5025 3490 5035 3490 5045C 3490 5059 3154 5064 3145 5050z" stroke="none" fill="#000000" fill-rule="nonzero" />
            <path d="M2832 4975L2831 4940L3164 4940L3497 4940L3496 4975L3495 5010L3164 5010L2833 5010L2832 4975zM2877 4984C 2874 4981 2865 4980 2858 4983C 2850 4986 2853 4989 2864 4989C 2875 4990 2881 4987 2877 4984zM3168 4983C 3158 4981 3142 4981 3133 4983C 3123 4986 3131 4988 3150 4988C 3169 4988 3177 4986 3168 4983zM3402 4983C 3362 4981 3299 4981 3262 4983C 3225 4985 3258 4986 3335 4986C 3412 4986 3442 4984 3402 4983z" stroke="none" fill="#000000" fill-rule="nonzero" />
            <path d="M2836 4903C 2833 4899 2830 4814 2830 4713C 2830 4545 2831 4530 2848 4531C 2858 4531 2860 4534 2853 4537C 2843 4540 2840 4581 2840 4691L2840 4691L2840 4840L2865 4840L2891 4840L2888 4685L2885 4530L2910 4531C 2927 4532 2929 4534 2918 4537C 2902 4541 2900 4557 2900 4691L2900 4691L2900 4840L3195 4840L3490 4840L3490 4691L3490 4541L3438 4537L3385 4534L3443 4532L3500 4530L3498 4718L3495 4905L3169 4907C 2989 4908 2840 4906 2836 4903z" stroke="none" fill="#000000" fill-rule="nonzero" />
            <path d="M3202 4688L3200 4541L3073 4537C 3002 4536 3037 4534 3150 4534C 3263 4534 3322 4536 3283 4537L3283 4537L3211 4541L3207 4688L3204 4835L3202 4688z" stroke="none" fill="#000000" fill-rule="nonzero" />
            <path d="M2830 4455L2830 4420L3164 4420L3498 4420L3496 4453L3493 4485L3162 4488L2830 4490L2830 4455z" stroke="none" fill="#000000" fill-rule="nonzero" />
            <path d="M2830 4375C 2830 4352 2834 4350 2875 4350C 2916 4350 2920 4352 2920 4375C 2920 4398 2916 4400 2875 4400C 2834 4400 2830 4398 2830 4375z" stroke="none" fill="#000000" fill-rule="nonzero" />
            <path d="M2947 4393C 2943 4390 2940 4378 2940 4368C 2940 4353 2948 4350 2990 4350C 3037 4350 3040 4352 3040 4375C 3040 4398 3036 4400 2997 4400C 2973 4400 2950 4397 2947 4393z" stroke="none" fill="#000000" fill-rule="nonzero" />
            <path d="M3060 4375C 3060 4352 3064 4350 3105 4350C 3146 4350 3150 4352 3150 4375C 3150 4398 3146 4400 3105 4400C 3064 4400 3060 4398 3060 4375z" stroke="none" fill="#000000" fill-rule="nonzero" />
            <path d="M3177 4394C 3173 4390 3170 4378 3170 4368C 3170 4353 3178 4350 3221 4350C 3268 4350 3271 4352 3268 4373C 3266 4391 3258 4396 3225 4398C 3202 4400 3181 4398 3177 4394z" stroke="none" fill="#000000" fill-rule="nonzero" />
            <path d="M3290 4375C 3290 4352 3294 4350 3335 4350C 3376 4350 3380 4352 3380 4375C 3380 4398 3376 4400 3335 4400C 3294 4400 3290 4398 3290 4375z" stroke="none" fill="#000000" fill-rule="nonzero" />
            <path d="M3407 4393C 3403 4390 3400 4378 3400 4368C 3400 4353 3408 4350 3450 4350C 3497 4350 3500 4352 3500 4375C 3500 4398 3496 4400 3457 4400C 3433 4400 3410 4397 3407 4393z" stroke="none" fill="#000000" fill-rule="nonzero" />
            <path d="M3380 4320C 3268 4314 3279 4302 3400 4297L3400 4297L3485 4294L3388 4292C 3291 4290 3290 4290 3290 4265L3290 4265L3290 4240L3395 4240L3500 4240L3498 4280C 3496 4302 3491 4321 3485 4322C 3480 4324 3432 4323 3380 4320z" stroke="none" fill="#000000" fill-rule="nonzero" />
            <path d="M2933 4313C 2970 4311 3030 4311 3068 4313C 3105 4315 3074 4316 3000 4316C 2926 4316 2895 4315 2933 4313z" stroke="none" fill="#000000" fill-rule="nonzero" />
            <path d="M3871 5633C 3850 5629 3861 5614 3981 5494C 4054 5420 4118 5360 4122 5360C 4127 5360 4130 5381 4130 5408C 4130 5454 4128 5457 4043 5542C 3954 5630 3929 5643 3871 5633z" stroke="none" fill="#000000" fill-rule="nonzero" />
            <path d="M4035 5629C 4032 5625 4051 5603 4077 5580L4077 5580L4125 5538L4128 5580C 4130 5603 4129 5624 4127 5627C 4118 5635 4039 5637 4035 5629z" stroke="none" fill="#000000" fill-rule="nonzero" />
            <path d="M3660 5623C 3660 5614 4113 5160 4123 5160C 4127 5160 4130 5186 4130 5217L4130 5217L4130 5275L3953 5452L3775 5630L3718 5630C 3686 5630 3660 5627 3660 5623z" stroke="none" fill="#000000" fill-rule="nonzero" />
            <path d="M2043 5288L1940 5185L1940 5035L1940 4886L1975 4920L2010 4954L2010 5055L2010 5155L2081 5223L2151 5291L2148 5341L2145 5391L2043 5288z" stroke="none" fill="#000000" fill-rule="nonzero" />
            <path d="M4189 5386C 4186 5383 4185 5360 4186 5334C 4188 5290 4193 5283 4259 5217L4259 5217L4330 5148L4330 5049C 4330 4956 4332 4948 4357 4920C 4371 4903 4387 4890 4392 4890C 4396 4890 4400 4956 4400 5038L4400 5038L4400 5185L4297 5288C 4240 5344 4192 5388 4189 5386z" stroke="none" fill="#000000" fill-rule="nonzero" />
            <path d="M2103 5168C 2063 5128 2060 5120 2060 5072C 2060 5043 2064 5020 2068 5020C 2072 5020 2093 5037 2114 5058C 2149 5095 2151 5100 2148 5154L2148 5154L2145 5211L2103 5168z" stroke="none" fill="#000000" fill-rule="nonzero" />
            <path d="M4187 5198C 4184 5190 4184 5161 4187 5134C 4190 5097 4199 5077 4223 5053C 4267 5006 4280 5010 4280 5071C 4280 5117 4276 5125 4237 5167C 4204 5202 4192 5209 4187 5198z" stroke="none" fill="#000000" fill-rule="nonzero" />
            <path d="M2102 4967L2060 4924L2060 4673L2060 4421L2105 4373L2149 4325L2150 4668C 2150 4856 2149 5010 2147 5010C 2145 5010 2125 4991 2102 4967z" stroke="none" fill="#000000" fill-rule="nonzero" />
            <path d="M4190 5000C 4187 4907 4190 4347 4193 4344C 4195 4342 4215 4358 4238 4379L4238 4379L4279 4419L4279 4670L4279 4922L4235 4969C 4209 4996 4190 5009 4190 5000z" stroke="none" fill="#000000" fill-rule="nonzero" />
            <path d="M1973 4838L1940 4804L1940 4669L1940 4534L1970 4505C 1986 4489 2002 4479 2005 4482C 2008 4485 2009 4574 2008 4679L2008 4679L2005 4871L1973 4838z" stroke="none" fill="#000000" fill-rule="nonzero" />
            <path d="M4330 4677L4330 4479L4365 4507L4400 4535L4400 4671L4400 4806L4365 4840L4330 4874L4330 4677z" stroke="none" fill="#000000" fill-rule="nonzero" />
            <path d="M1840 4705L1806 4670L1838 4638C 1855 4620 1872 4609 1875 4612C 1878 4615 1880 4645 1878 4679L1878 4679L1875 4741L1840 4705z" stroke="none" fill="#000000" fill-rule="nonzero" />
            <path d="M4460 4677C 4460 4640 4463 4610 4466 4610C 4469 4610 4485 4624 4502 4642L4502 4642L4531 4673L4496 4709L4460 4745L4460 4677z" stroke="none" fill="#000000" fill-rule="nonzero" />
            <path d="M1940 4309L1940 4155L2045 4050L2150 3945L2150 4000C 2150 4055 2150 4056 2080 4125L2080 4125L2010 4194L2010 4295L2010 4396L1975 4430L1940 4464L1940 4309z" stroke="none" fill="#000000" fill-rule="nonzero" />
            <path d="M4363 4428C 4330 4394 4330 4393 4330 4295L4330 4295L4330 4195L4260 4125C 4197 4062 4190 4050 4188 4012C 4187 3989 4189 3968 4192 3965C 4194 3962 4242 4005 4298 4060L4298 4060L4401 4160L4398 4310L4395 4461L4363 4428z" stroke="none" fill="#000000" fill-rule="nonzero" />
            <path d="M2060 4274C 2060 4222 2063 4216 2105 4172L2105 4172L2150 4125L2150 4190C 2150 4253 2148 4257 2112 4293C 2091 4313 2071 4330 2067 4330C 2063 4330 2060 4305 2060 4274z" stroke="none" fill="#000000" fill-rule="nonzero" />
            <path d="M4227 4292C 4193 4257 4190 4249 4190 4197C 4190 4166 4192 4140 4195 4140C 4197 4140 4217 4159 4239 4183C 4276 4221 4280 4230 4280 4278C 4280 4306 4276 4330 4272 4330C 4268 4330 4247 4313 4227 4292z" stroke="none" fill="#000000" fill-rule="nonzero" />
            <path d="M2200 4133L2200 4076L2383 3893L2565 3710L2630 3710L2695 3710L2455 3950C 2323 4082 2212 4190 2208 4190C 2203 4190 2200 4164 2200 4133z" stroke="none" fill="#000000" fill-rule="nonzero" />
            <path d="M3885 3950L3645 3710L3705 3710L3766 3710L3948 3892L4130 4073L4130 4132C 4130 4164 4129 4190 4127 4190C 4126 4190 4017 4082 3885 3950z" stroke="none" fill="#000000" fill-rule="nonzero" />
            <path d="M2200 3943C 2200 3897 2202 3894 2293 3803L2293 3803L2386 3710L2440 3710L2495 3710L2355 3850C 2278 3927 2212 3990 2208 3990C 2203 3990 2200 3969 2200 3943z" stroke="none" fill="#000000" fill-rule="nonzero" />
            <path d="M3985 3850L3845 3710L3896 3710C 3946 3710 3946 3710 4038 3802C 4128 3893 4130 3896 4130 3942C 4130 3969 4129 3990 4127 3990C 4126 3990 4062 3927 3985 3850z" stroke="none" fill="#000000" fill-rule="nonzero" />
            <path d="M2200 3760L2200 3710L2257 3710L2314 3710L2265 3760C 2238 3788 2212 3810 2208 3810C 2204 3810 2200 3788 2200 3760z" stroke="none" fill="#000000" fill-rule="nonzero" />
            <path d="M4075 3760L4026 3710L4078 3710L4130 3710L4130 3760C 4130 3788 4129 3810 4127 3810C 4126 3810 4102 3788 4075 3760z" stroke="none" fill="#000000" fill-rule="nonzero" />
            <path d="M2450 3652C 2450 3647 2497 3598 2554 3542L2554 3542L2658 3440L2804 3440C 2884 3440 2950 3443 2950 3447C 2950 3451 2938 3467 2923 3482C 2897 3509 2893 3510 2797 3510L2797 3510L2698 3510L2621 3585C 2547 3657 2541 3660 2497 3660C 2471 3660 2450 3656 2450 3652z" stroke="none" fill="#000000" fill-rule="nonzero" />
            <path d="M2630 3652C 2630 3648 2647 3627 2668 3607C 2704 3572 2710 3570 2770 3570L2770 3570L2834 3570L2790 3615C 2748 3658 2743 3660 2688 3660C 2656 3660 2630 3656 2630 3652z" stroke="none" fill="#000000" fill-rule="nonzero" />
            <path d="M2830 3652C 2830 3648 2847 3627 2868 3607L2868 3607L2906 3570L3166 3570L3426 3570L3463 3608C 3483 3629 3500 3649 3500 3653C 3500 3657 3349 3660 3165 3660C 2981 3660 2830 3656 2830 3652z" stroke="none" fill="#000000" fill-rule="nonzero" />
            <path d="M3550 3615L3506 3570L3565 3570C 3627 3571 3646 3581 3694 3638L3694 3638L3713 3660L3654 3660C 3596 3660 3593 3658 3550 3615z" stroke="none" fill="#000000" fill-rule="nonzero" />
            <path d="M3719 3585L3643 3510L3544 3510C 3451 3510 3445 3509 3418 3483C 3403 3468 3390 3453 3390 3448C 3390 3444 3454 3440 3533 3440L3533 3440L3675 3440L3783 3546C 3842 3604 3890 3653 3890 3656C 3890 3658 3869 3660 3843 3660C 3797 3660 3792 3657 3719 3585z" stroke="none" fill="#000000" fill-rule="nonzero" />
            <path d="M2980 3506C 2980 3500 2992 3483 3007 3468C 3034 3440 3034 3440 3165 3440L3165 3440L3296 3440L3330 3475C 3349 3494 3362 3510 3359 3510C 3250 3516 2980 3513 2980 3506z" stroke="none" fill="#000000" fill-rule="nonzero" />
            <path d="M3100 3384C 3100 3380 3115 3362 3132 3344L3132 3344L3165 3311L3197 3342C 3215 3360 3230 3378 3230 3382C 3230 3386 3201 3390 3165 3390C 3129 3390 3100 3387 3100 3384z" stroke="none" fill="#000000" fill-rule="nonzero" />
            <path d="M3466 2344C 3405 2325 3295 2219 3262 2148C 3166 1941 3250 1691 3449 1593C 3525 1555 3622 1556 3703 1595C 3811 1647 3899 1772 3920 1906C 3946 2070 3861 2247 3719 2325C 3653 2361 3544 2369 3466 2344zM3663 2325C 3754 2287 3783 2202 3784 1970C 3785 1769 3770 1702 3708 1640C 3633 1565 3500 1567 3431 1645C 3384 1699 3368 1765 3363 1935C 3355 2172 3387 2275 3481 2322C 3523 2344 3614 2345 3663 2325z" stroke="none" fill="#000000" fill-rule="nonzero" />
            <path d="M337 2343C 327 2326 318 2130 327 2130C 333 2130 344 2158 354 2192C 366 2236 382 2264 409 2292C 446 2328 450 2330 514 2330L514 2330L580 2330L580 1965L580 1600L529 1600C 502 1600 481 1596 484 1591C 487 1586 554 1582 632 1582C 776 1581 836 1591 745 1600L745 1600L695 1605L692 1968L690 2330L750 2330C 849 2330 882 2304 918 2196C 929 2165 941 2138 946 2137C 956 2135 952 2276 941 2318L941 2318L934 2345L637 2348C 475 2349 339 2347 337 2343z" stroke="none" fill="#000000" fill-rule="nonzero" />
            <path d="M1010 2340C 1010 2335 1033 2330 1060 2330L1060 2330L1110 2330L1110 2028C 1110 1654 1114 1643 1235 1589C 1329 1547 1474 1563 1538 1623C 1582 1664 1585 1681 1590 2010L1590 2010L1595 2325L1643 2328C 1733 2334 1690 2350 1585 2350C 1522 2350 1480 2346 1480 2340C 1480 2335 1500 2330 1525 2330L1525 2330L1570 2330L1570 2023C 1570 1723 1569 1714 1547 1676C 1519 1627 1485 1601 1432 1589C 1344 1570 1252 1619 1231 1696C 1224 1720 1220 1851 1220 2033L1220 2033L1220 2330L1265 2330C 1290 2330 1310 2335 1310 2340C 1310 2346 1253 2350 1160 2350C 1067 2350 1010 2346 1010 2340z" stroke="none" fill="#000000" fill-rule="nonzero" />
            <path d="M1750 2341C 1750 2335 1771 2330 1800 2330L1800 2330L1850 2330L1848 1968L1845 1605L1797 1602C 1769 1600 1752 1595 1756 1589C 1763 1577 2038 1578 2046 1591C 2049 1596 2031 1600 2006 1600L2006 1600L1960 1600L1960 1790L1960 1980L2015 1980C 2130 1980 2165 1932 2181 1759C 2186 1698 2195 1640 2200 1630C 2217 1598 2253 1580 2298 1580C 2334 1580 2410 1602 2410 1612C 2410 1614 2393 1614 2372 1612C 2347 1609 2330 1613 2321 1623C 2314 1632 2305 1687 2300 1750C 2291 1884 2269 1926 2196 1956C 2171 1967 2150 1978 2150 1982C 2150 1985 2165 1994 2184 2000C 2336 2050 2347 2256 2202 2323C 2160 2343 2135 2345 1953 2348C 1813 2350 1750 2348 1750 2341zM2134 2318C 2171 2302 2191 2266 2197 2205C 2205 2130 2193 2064 2165 2032C 2143 2007 2135 2005 2051 2002L2051 2002L1960 1998L1960 2164L1960 2330L2035 2330C 2076 2330 2120 2325 2134 2318z" stroke="none" fill="#000000" fill-rule="nonzero" />
            <path d="M2460 2340C 2460 2335 2480 2330 2505 2330L2505 2330L2549 2330L2552 1988C 2554 1799 2554 1635 2552 1623C 2549 1603 2543 1600 2504 1600C 2475 1600 2461 1596 2465 1589C 2472 1578 2647 1578 2665 1589C 2671 1592 2653 1597 2625 1600L2625 1600L2575 1605L2572 1943C 2571 2128 2573 2280 2577 2280C 2582 2280 2597 2261 2611 2238C 2625 2214 2674 2134 2720 2060C 2844 1858 2939 1702 2977 1638C 3000 1599 3017 1580 3030 1580C 3049 1580 3050 1590 3050 1955L3050 1955L3050 2330L3100 2330C 3128 2330 3150 2335 3150 2340C 3150 2346 3108 2350 3045 2350C 2982 2350 2940 2346 2940 2340C 2940 2335 2960 2330 2985 2330L2985 2330L3030 2330L3030 2058L3030 1785L3001 1830C 2962 1892 2754 2233 2716 2298L2716 2298L2686 2350L2573 2350C 2504 2350 2460 2346 2460 2340z" stroke="none" fill="#000000" fill-rule="nonzero" />
            <path d="M3980 2341C 3980 2335 4001 2330 4027 2328L4027 2328L4073 2325L4126 2170C 4156 2085 4209 1927 4245 1820C 4324 1587 4330 1570 4340 1570C 4345 1570 4374 1650 4405 1748C 4436 1845 4491 2016 4527 2128L4527 2128L4592 2330L4631 2330C 4652 2330 4670 2335 4670 2340C 4670 2346 4630 2350 4570 2350C 4510 2350 4470 2346 4470 2340C 4470 2335 4490 2330 4515 2330C 4544 2330 4560 2326 4560 2318C 4560 2311 4531 2215 4496 2105C 4460 1995 4421 1872 4409 1833C 4396 1793 4384 1760 4380 1760C 4376 1760 4220 2203 4190 2303C 4181 2330 4182 2330 4231 2330C 4258 2330 4280 2335 4280 2340C 4280 2346 4223 2350 4130 2350C 4042 2350 3980 2346 3980 2341z" stroke="none" fill="#000000" fill-rule="nonzero" />
            <path d="M4720 2341C 4720 2335 4741 2330 4768 2328L4768 2328L4815 2325L4818 1985C 4819 1798 4818 1635 4815 1623C 4810 1603 4803 1600 4764 1600C 4736 1600 4721 1596 4725 1590C 4734 1576 5245 1577 5271 1590C 5288 1600 5290 1612 5290 1704C 5290 1760 5287 1810 5283 1814C 5279 1818 5268 1790 5257 1753C 5222 1625 5185 1600 5023 1600L5023 1600L4930 1600L4930 1790L4930 1980L4984 1980C 5014 1980 5046 1977 5055 1974C 5074 1966 5100 1919 5100 1890C 5100 1879 5105 1870 5110 1870C 5116 1870 5120 1917 5120 1992C 5120 2115 5113 2129 5090 2057C 5075 2011 5056 2000 4986 2000L4986 2000L4930 2000L4930 2165L4930 2330L5030 2330C 5101 2330 5140 2325 5160 2315C 5194 2297 5227 2240 5236 2181C 5240 2158 5246 2140 5251 2140C 5261 2140 5263 2310 5254 2334C 5249 2348 5215 2350 4984 2350C 4825 2350 4720 2346 4720 2341z" stroke="none" fill="#000000" fill-rule="nonzero" />
            <path d="M5370 2341C 5370 2335 5392 2330 5420 2330L5420 2330L5470 2330L5470 1965L5470 1600L5419 1600C 5387 1600 5371 1596 5375 1590C 5383 1577 5651 1578 5671 1591C 5680 1597 5667 1600 5632 1600L5632 1600L5580 1600L5582 1788L5585 1975L5652 1974C 5760 1973 5788 1935 5801 1768C 5814 1612 5835 1580 5925 1580C 5965 1580 6040 1602 6040 1613C 6040 1616 6020 1615 5996 1613C 5939 1606 5934 1617 5928 1740C 5922 1875 5881 1944 5797 1965C 5761 1975 5763 1983 5806 1999C 5852 2016 5904 2062 5920 2100C 5939 2146 5928 2223 5897 2264C 5882 2282 5849 2309 5823 2321C 5778 2343 5762 2345 5573 2348C 5435 2350 5370 2348 5370 2341zM5760 2315C 5803 2293 5820 2252 5820 2170C 5820 2034 5788 2000 5663 2000L5663 2000L5580 2000L5580 2165L5580 2330L5655 2330C 5703 2330 5742 2324 5760 2315z" stroke="none" fill="#000000" fill-rule="nonzero" />
            <path d="M4425 769C 4414 752 4425 749 4446 765C 4463 778 4463 779 4448 780C 4439 780 4428 775 4425 769z" stroke="none" fill="#000000" fill-rule="nonzero" />
            <path d="M1450 620C 1450 553 1454 510 1460 510C 1466 510 1470 530 1470 555L1470 555L1470 600L1516 600C 1547 600 1560 604 1558 612C 1556 618 1536 624 1514 624C 1475 625 1475 625 1475 665L1475 665L1475 705L1528 708C 1599 712 1584 730 1509 730L1509 730L1450 730L1450 620z" stroke="none" fill="#000000" fill-rule="nonzero" />
            <path d="M1812 713C 1785 663 1730 517 1735 512C 1743 504 1770 539 1770 557C 1770 566 1787 570 1826 570C 1879 570 1882 568 1893 540C 1905 509 1920 500 1920 523C 1920 547 1844 724 1833 727C 1826 730 1817 723 1812 713zM1849 653C 1857 632 1865 609 1867 603C 1871 594 1860 590 1831 590C 1808 590 1790 593 1790 597C 1790 612 1823 690 1829 690C 1833 690 1842 673 1849 653z" stroke="none" fill="#000000" fill-rule="nonzero" />
            <path d="M2131 716C 2098 698 2081 663 2080 612C 2080 550 2120 510 2182 510C 2223 510 2250 523 2250 542C 2250 547 2241 546 2231 540C 2131 487 2051 634 2146 696C 2167 711 2179 712 2211 703C 2252 692 2264 702 2231 720C 2204 734 2160 732 2131 716z" stroke="none" fill="#000000" fill-rule="nonzero" />
            <path d="M2410 721C 2410 715 2425 710 2443 708L2443 708L2475 705L2480 610C 2483 557 2489 515 2495 515C 2501 515 2507 557 2510 610L2510 610L2515 705L2548 708C 2566 710 2578 716 2575 721C 2567 733 2410 733 2410 721z" stroke="none" fill="#000000" fill-rule="nonzero" />
            <path d="M2741 640C 2745 558 2747 546 2769 529C 2803 501 2861 504 2890 535C 2910 557 2914 570 2914 642C 2915 698 2911 724 2903 727C 2893 731 2890 712 2890 653C 2890 562 2875 530 2832 530C 2782 530 2775 543 2770 636C 2767 697 2761 725 2751 728C 2741 731 2739 714 2741 640z" stroke="none" fill="#000000" fill-rule="nonzero" />
            <path d="M3104 717C 3095 693 3105 515 3115 515C 3121 515 3126 534 3128 558C 3132 615 3157 614 3199 555C 3217 530 3235 510 3241 510C 3255 510 3252 517 3220 561L3220 561L3190 602L3215 622C 3247 647 3249 693 3218 714C 3190 734 3111 735 3104 717zM3212 688C 3232 655 3205 620 3159 620C 3131 620 3130 622 3130 666L3130 666L3130 713L3167 707C 3187 703 3207 695 3212 688z" stroke="none" fill="#000000" fill-rule="nonzero" />
            <path d="M3483 713C 3480 703 3462 657 3444 611C 3408 520 3405 510 3419 510C 3424 510 3433 524 3439 540C 3448 568 3452 570 3504 570C 3555 570 3559 568 3569 540C 3574 524 3584 510 3589 510C 3595 510 3600 512 3600 515C 3600 521 3563 616 3546 655C 3538 672 3529 695 3525 708C 3517 734 3492 737 3483 713zM3533 633L3550 590L3505 590L3461 590L3475 631C 3501 704 3506 704 3533 633z" stroke="none" fill="#000000" fill-rule="nonzero" />
            <path d="M3810 717C 3746 685 3734 589 3787 536C 3817 506 3883 500 3916 524C 3933 537 3929 538 3879 533C 3827 528 3822 529 3802 555C 3776 588 3773 646 3795 677C 3814 704 3870 716 3900 700C 3928 685 3941 697 3916 716C 3892 733 3843 734 3810 717z" stroke="none" fill="#000000" fill-rule="nonzero" />
            <path d="M4110 620C 4110 529 4113 510 4125 510C 4137 510 4140 529 4140 620C 4140 711 4137 730 4125 730C 4113 730 4110 711 4110 620z" stroke="none" fill="#000000" fill-rule="nonzero" />
            <path d="M4371 716C 4338 698 4321 663 4320 612C 4320 577 4326 563 4349 539C 4391 497 4459 497 4501 539C 4525 564 4530 577 4530 618C 4530 663 4526 671 4495 699C 4456 733 4413 739 4371 716zM4464 698C 4493 685 4503 662 4503 606C 4503 546 4447 513 4385 536C 4359 547 4337 598 4345 637C 4357 701 4405 726 4464 698z" stroke="none" fill="#000000" fill-rule="nonzero" />
            <path d="M4705 717C 4694 689 4705 517 4718 512C 4727 509 4730 529 4730 589C 4730 634 4733 670 4738 670C 4742 669 4771 633 4803 590C 4836 546 4866 510 4871 510C 4876 510 4880 560 4880 622C 4880 751 4863 762 4858 636L4858 636L4855 557L4792 638C 4722 728 4712 737 4705 717z" stroke="none" fill="#000000" fill-rule="nonzero" />
            <path d="M4132 302C 4114 290 4119 89 4138 82C 4147 79 4150 106 4150 194C 4150 258 4149 310 4148 310C 4146 310 4139 306 4132 302z" stroke="none" fill="#000000" fill-rule="nonzero" />
            <path d="M1494 287C 1491 279 1491 231 1492 179L1492 179L1495 85L1558 82C 1596 80 1620 83 1620 90C 1620 95 1598 100 1569 100L1569 100L1519 100L1522 143C 1525 184 1526 185 1565 191L1565 191L1605 197L1563 199L1520 200L1520 240L1520 280L1569 280C 1597 280 1622 285 1625 290C 1629 296 1607 300 1565 300C 1520 300 1498 296 1494 287z" stroke="none" fill="#000000" fill-rule="nonzero" />
            <path d="M1810 298C 1809 296 1809 248 1808 190L1808 190L1807 85L1863 82C 1898 80 1920 83 1920 90C 1920 95 1900 100 1875 100L1875 100L1830 100L1830 194C 1830 247 1826 292 1820 295C 1815 298 1810 300 1810 298z" stroke="none" fill="#000000" fill-rule="nonzero" />
            <path d="M2092 193L2095 85L2158 82C 2196 80 2220 83 2220 90C 2220 95 2198 100 2169 100L2169 100L2119 100L2122 143C 2125 184 2126 185 2165 191L2165 191L2205 197L2163 199L2120 200L2120 240L2120 280L2170 280C 2198 280 2220 285 2220 290C 2220 296 2192 300 2155 300L2155 300L2089 300L2092 193z" stroke="none" fill="#000000" fill-rule="nonzero" />
            <path d="M2419 271C 2395 246 2390 233 2390 191C 2390 118 2420 85 2489 85C 2516 85 2545 91 2551 97C 2570 116 2557 121 2524 108C 2456 83 2400 137 2414 214C 2423 264 2457 285 2515 277C 2540 273 2560 274 2560 279C 2560 292 2533 300 2488 300C 2458 300 2442 293 2419 271z" stroke="none" fill="#000000" fill-rule="nonzero" />
            <path d="M2720 290C 2720 285 2736 280 2755 280L2755 280L2790 280L2790 179C 2790 103 2793 79 2803 82C 2811 85 2816 117 2818 183L2818 183L2821 280L2855 280C 2874 280 2890 285 2890 290C 2890 296 2855 300 2805 300C 2755 300 2720 296 2720 290z" stroke="none" fill="#000000" fill-rule="nonzero" />
            <path d="M3056 292C 3049 281 3049 113 3056 95C 3068 66 3080 81 3080 124C 3080 199 3101 193 3183 91C 3191 81 3195 80 3198 88C 3200 95 3190 114 3176 131C 3145 168 3144 181 3170 198C 3194 213 3197 262 3174 284C 3158 301 3065 307 3056 292zM3158 268C 3188 238 3158 190 3109 190C 3081 190 3080 192 3080 235C 3080 279 3081 280 3113 280C 3131 280 3151 275 3158 268z" stroke="none" fill="#000000" fill-rule="nonzero" />
            <path d="M3399 271C 3347 219 3366 114 3431 91C 3475 76 3497 77 3531 97C 3570 120 3592 177 3579 223C 3557 302 3457 328 3399 271zM3544 239C 3561 207 3562 197 3552 163C 3523 65 3390 89 3390 192C 3390 249 3426 282 3483 278C 3520 275 3527 271 3544 239z" stroke="none" fill="#000000" fill-rule="nonzero" />
            <path d="M3754 287C 3745 263 3755 85 3765 87C 3771 89 3777 127 3780 172L3780 172L3785 254L3845 173C 3878 128 3911 89 3918 86C 3927 82 3930 106 3930 191C 3930 262 3926 299 3920 295C 3915 292 3910 255 3910 214C 3910 173 3907 140 3903 141C 3898 141 3868 177 3835 220C 3774 301 3763 310 3754 287z" stroke="none" fill="#000000" fill-rule="nonzero" />
            <path d="M4377 289C 4353 275 4330 227 4330 190C 4330 142 4355 103 4395 90C 4431 78 4485 84 4496 101C 4505 117 4491 125 4478 112C 4460 94 4416 98 4387 120C 4354 146 4345 189 4364 234C 4380 274 4410 286 4466 277C 4500 271 4513 283 4484 294C 4460 303 4397 301 4377 289z" stroke="none" fill="#000000" fill-rule="nonzero" />
            <path d="M4717 233C 4703 195 4685 148 4676 128C 4666 105 4664 89 4670 85C 4676 82 4685 91 4691 107C 4704 142 4716 150 4763 150C 4796 150 4803 145 4821 115C 4860 49 4858 90 4816 195C 4766 323 4753 328 4717 233zM4784 217C 4793 194 4800 171 4800 167C 4800 163 4782 160 4760 160C 4738 160 4720 163 4720 167C 4720 183 4753 260 4760 260C 4764 260 4775 241 4784 217z" stroke="none" fill="#000000" fill-rule="nonzero" />
		</g>
	</g>
</g>
</svg>