<?xml version="1.0" standalone="no"?>
<!DOCTYPE svg PUBLIC "-//W3C//DTD SVG 20010904//EN"
 "http://www.w3.org/TR/2001/REC-SVG-20010904/DTD/svg10.dtd">
<svg version="1.0" xmlns="http://www.w3.org/2000/svg"
 width="640.000000pt" height="640.000000pt" viewBox="0 0 640.000000 640.000000"
 preserveAspectRatio="xMidYMid meet">

<g transform="translate(0.000000,640.000000) scale(0.100000,-0.100000)"
fill="#000000" stroke="none">
<path d="M3051 6265 l-113 -115 -190 0 -189 0 -137 -135 -137 -135 -162 0
-163 0 0 -162 0 -163 -135 -136 -135 -136 0 -190 0 -190 -110 -108 c-60 -60
-110 -114 -110 -120 0 -6 50 -60 110 -120 l110 -110 0 -190 0 -190 135 -135
135 -135 0 -162 0 -163 143 -1 c78 0 152 -2 165 -3 15 -2 73 -52 155 -134
l132 -132 190 0 190 0 117 -117 118 -118 118 118 117 117 190 0 190 0 135 135
135 135 162 0 163 0 0 162 0 162 135 136 135 137 0 189 0 189 112 112 111 111
-24 29 c-13 15 -64 66 -112 113 l-87 85 0 191 0 190 -135 135 -135 134 0 168
0 167 -167 0 -167 0 -135 135 -135 135 -191 0 -190 0 -115 115 -115 115 -114
-115z m194 -235 l69 -70 191 0 190 0 135 -135 134 -134 111 -3 110 -3 3 -110
3 -110 134 -133 135 -133 0 -190 0 -190 70 -72 c39 -39 70 -74 70 -77 0 -3
-31 -37 -70 -75 l-70 -69 0 -191 0 -190 -135 -135 -135 -135 0 -107 0 -108
-108 0 -107 0 -135 -135 -135 -135 -190 0 -190 0 -77 -77 -77 -77 -80 77 -79
77 -188 0 -189 0 -135 135 -135 135 -107 0 -108 0 0 108 0 107 -135 135 -135
135 0 190 0 190 -75 75 -75 75 75 75 75 74 0 190 0 189 135 137 135 136 0 107
0 107 107 0 107 0 136 135 137 135 190 0 190 0 71 70 c39 39 75 70 79 70 5 0
40 -31 78 -70z"/>
<path d="M3130 5995 l-34 -35 74 0 74 0 -34 35 c-19 19 -37 35 -40 35 -3 0
-21 -16 -40 -35z"/>
<path d="M2550 5795 l-105 -105 50 0 c48 1 53 4 125 70 l75 70 95 0 c91 1 96
2 128 30 17 16 32 32 32 35 0 3 -66 5 -148 5 l-147 0 -105 -105z"/>
<path d="M3000 5865 l-34 -35 197 0 c108 0 197 3 197 7 0 4 -12 20 -27 35 -27
28 -27 28 -163 28 l-136 0 -34 -35z"/>
<path d="M3410 5865 l34 -35 101 0 101 0 69 -70 c67 -67 71 -70 117 -70 27 0
48 3 48 8 0 4 -44 51 -98 105 l-97 97 -155 0 -154 0 34 -35z"/>
<path d="M2670 5735 l-44 -45 61 0 c58 0 65 2 103 38 22 22 37 42 33 45 -3 4
-29 7 -58 7 -47 0 -54 -3 -95 -45z"/>
<path d="M2870 5735 l-44 -45 337 0 c188 0 337 4 337 9 0 5 -18 25 -40 45
l-40 36 -253 0 -253 0 -44 -45z"/>
<path d="M3510 5771 c0 -5 18 -25 40 -45 36 -32 46 -36 95 -36 30 0 55 4 55 8
0 4 -17 25 -38 45 -35 34 -43 37 -95 37 -31 0 -57 -4 -57 -9z"/>
<path d="M2243 5633 l-43 -4 0 -45 c0 -24 3 -44 8 -44 11 0 92 80 92 91 0 5
-3 8 -7 7 -5 -1 -27 -3 -50 -5z"/>
<path d="M2297 5540 l-98 -96 3 -48 3 -48 139 136 c76 76 136 140 132 143 -3
3 -23 7 -43 7 -35 2 -46 -6 -136 -94z"/>
<path d="M2584 5632 c-11 -2 -102 -85 -203 -186 l-182 -182 3 -57 3 -57 238
237 c130 130 237 239 237 242 0 7 -57 9 -96 3z"/>
<path d="M2488 5350 l-288 -285 0 -395 0 -395 284 -282 283 -283 400 0 399 0
282 282 282 282 0 400 0 401 -277 277 -278 278 -400 2 -400 3 -287 -285z
m1092 -119 c0 -6 -161 -10 -397 -10 -219 0 -404 -1 -410 -1 -10 0 -13 -115
-16 -522 l-2 -523 -3 533 -2 532 415 0 c247 0 415 -4 415 -9z m-22 -527 l2
-502 -22 -6 c-30 -8 -732 -8 -752 0 -14 5 -16 59 -16 503 0 274 3 501 7 504 4
4 180 6 392 5 l386 -3 3 -501z"/>
<path d="M3307 5092 c-106 -1 -166 -6 -162 -12 8 -13 342 -13 349 -1 9 15 -11
16 -187 13z"/>
<path d="M3145 5050 c-3 -6 0 -12 7 -15 25 -10 338 0 338 10 0 14 -336 19
-345 5z"/>
<path d="M2832 4975 l-1 -35 333 0 333 0 -1 35 -1 35 -331 0 -331 0 -1 -35z
m45 9 c-3 -3 -12 -4 -19 -1 -8 3 -5 6 6 6 11 1 17 -2 13 -5z m291 -1 c-10 -2
-26 -2 -35 0 -10 3 -2 5 17 5 19 0 27 -2 18 -5z m234 0 c-40 -2 -103 -2 -140
0 -37 2 -4 3 73 3 77 0 107 -2 67 -3z"/>
<path d="M2836 4903 c-3 -4 -6 -89 -6 -190 0 -168 1 -183 18 -182 10 0 12 3 5
6 -10 3 -13 44 -13 154 l0 149 25 0 26 0 -3 -155 -3 -155 25 1 c17 1 19 3 8 6
-16 4 -18 20 -18 154 l0 149 295 0 295 0 0 -149 0 -150 -52 -4 -53 -3 58 -2
57 -2 -2 188 -3 187 -326 2 c-180 1 -329 -1 -333 -4z"/>
<path d="M3202 4688 l-2 -147 -127 -4 c-71 -1 -36 -3 77 -3 113 0 172 2 133 3
l-72 4 -4 147 -3 147 -2 -147z"/>
<path d="M2830 4455 l0 -35 334 0 334 0 -2 33 -3 32 -331 3 -332 2 0 -35z"/>
<path d="M2830 4375 c0 -23 4 -25 45 -25 41 0 45 2 45 25 0 23 -4 25 -45 25
-41 0 -45 -2 -45 -25z"/>
<path d="M2947 4393 c-4 -3 -7 -15 -7 -25 0 -15 8 -18 50 -18 47 0 50 2 50 25
0 23 -4 25 -43 25 -24 0 -47 -3 -50 -7z"/>
<path d="M3060 4375 c0 -23 4 -25 45 -25 41 0 45 2 45 25 0 23 -4 25 -45 25
-41 0 -45 -2 -45 -25z"/>
<path d="M3177 4394 c-4 -4 -7 -16 -7 -26 0 -15 8 -18 51 -18 47 0 50 2 47 23
-2 18 -10 23 -43 25 -23 2 -44 0 -48 -4z"/>
<path d="M3290 4375 c0 -23 4 -25 45 -25 41 0 45 2 45 25 0 23 -4 25 -45 25
-41 0 -45 -2 -45 -25z"/>
<path d="M3407 4393 c-4 -3 -7 -15 -7 -25 0 -15 8 -18 50 -18 47 0 50 2 50 25
0 23 -4 25 -43 25 -24 0 -47 -3 -50 -7z"/>
<path d="M3380 4320 c-112 -6 -101 -18 20 -23 l85 -3 -97 -2 c-97 -2 -98 -2
-98 -27 l0 -25 105 0 105 0 -2 40 c-2 22 -7 41 -13 42 -5 2 -53 1 -105 -2z"/>
<path d="M2933 4313 c37 -2 97 -2 135 0 37 2 6 3 -68 3 -74 0 -105 -1 -67 -3z"/>
<path d="M3871 5633 c-21 -4 -10 -19 110 -139 73 -74 137 -134 141 -134 5 0 8
21 8 48 0 46 -2 49 -87 134 -89 88 -114 101 -172 91z"/>
<path d="M4035 5629 c-3 -4 16 -26 42 -49 l48 -42 3 42 c2 23 1 44 -1 47 -9 8
-88 10 -92 2z"/>
<path d="M3660 5623 c0 -9 453 -463 463 -463 4 0 7 26 7 57 l0 58 -177 177
-178 178 -57 0 c-32 0 -58 -3 -58 -7z"/>
<path d="M2043 5288 l-103 -103 0 -150 0 -149 35 34 35 34 0 101 0 100 71 68
70 68 -3 50 -3 50 -102 -103z"/>
<path d="M4189 5386 c-3 -3 -4 -26 -3 -52 2 -44 7 -51 73 -117 l71 -69 0 -99
c0 -93 2 -101 27 -129 14 -17 30 -30 35 -30 4 0 8 66 8 148 l0 147 -103 103
c-57 56 -105 100 -108 98z"/>
<path d="M2103 5168 c-40 -40 -43 -48 -43 -96 0 -29 4 -52 8 -52 4 0 25 17 46
38 35 37 37 42 34 96 l-3 57 -42 -43z"/>
<path d="M4187 5198 c-3 -8 -3 -37 0 -64 3 -37 12 -57 36 -81 44 -47 57 -43
57 18 0 46 -4 54 -43 96 -33 35 -45 42 -50 31z"/>
<path d="M2102 4967 l-42 -43 0 -251 0 -252 45 -48 44 -48 1 343 c0 188 -1
342 -3 342 -2 0 -22 -19 -45 -43z"/>
<path d="M4190 5000 c-3 -93 0 -653 3 -656 2 -2 22 14 45 35 l41 40 0 251 0
252 -44 47 c-26 27 -45 40 -45 31z"/>
<path d="M1973 4838 l-33 -34 0 -135 0 -135 30 -29 c16 -16 32 -26 35 -23 3 3
4 92 3 197 l-3 192 -32 -33z"/>
<path d="M4330 4677 l0 -198 35 28 35 28 0 136 0 135 -35 34 -35 34 0 -197z"/>
<path d="M1840 4705 l-34 -35 32 -32 c17 -18 34 -29 37 -26 3 3 5 33 3 67 l-3
62 -35 -36z"/>
<path d="M4460 4677 c0 -37 3 -67 6 -67 3 0 19 14 36 32 l29 31 -35 36 -36 36
0 -68z"/>
<path d="M1940 4309 l0 -154 105 -105 105 -105 0 55 c0 55 0 56 -70 125 l-70
69 0 101 0 101 -35 34 -35 34 0 -155z"/>
<path d="M4363 4428 c-33 -34 -33 -35 -33 -133 l0 -100 -70 -70 c-63 -63 -70
-75 -72 -113 -1 -23 1 -44 4 -47 2 -3 50 40 106 95 l103 100 -3 150 -3 151
-32 -33z"/>
<path d="M2060 4274 c0 -52 3 -58 45 -102 l45 -47 0 65 c0 63 -2 67 -38 103
-21 20 -41 37 -45 37 -4 0 -7 -25 -7 -56z"/>
<path d="M4227 4292 c-34 -35 -37 -43 -37 -95 0 -31 2 -57 5 -57 2 0 22 19 44
43 37 38 41 47 41 95 0 28 -4 52 -8 52 -4 0 -25 -17 -45 -38z"/>
<path d="M2200 4133 l0 -57 183 -183 182 -183 65 0 65 0 -240 240 c-132 132
-243 240 -247 240 -5 0 -8 -26 -8 -57z"/>
<path d="M3885 3950 l-240 -240 60 0 61 0 182 182 182 181 0 59 c0 32 -1 58
-3 58 -1 0 -110 -108 -242 -240z"/>
<path d="M2200 3943 c0 -46 2 -49 93 -140 l93 -93 54 0 55 0 -140 140 c-77 77
-143 140 -147 140 -5 0 -8 -21 -8 -47z"/>
<path d="M3985 3850 l-140 -140 51 0 c50 0 50 0 142 92 90 91 92 94 92 140 0
27 -1 48 -3 48 -1 0 -65 -63 -142 -140z"/>
<path d="M2200 3760 l0 -50 57 0 57 0 -49 50 c-27 28 -53 50 -57 50 -4 0 -8
-22 -8 -50z"/>
<path d="M4075 3760 l-49 -50 52 0 52 0 0 50 c0 28 -1 50 -3 50 -1 0 -25 -22
-52 -50z"/>
<path d="M2450 3652 c0 -5 47 -54 104 -110 l104 -102 146 0 c80 0 146 3 146 7
0 4 -12 20 -27 35 -26 27 -30 28 -126 28 l-99 0 -77 75 c-74 72 -80 75 -124
75 -26 0 -47 -4 -47 -8z"/>
<path d="M2630 3652 c0 -4 17 -25 38 -45 36 -35 42 -37 102 -37 l64 0 -44 45
c-42 43 -47 45 -102 45 -32 0 -58 -4 -58 -8z"/>
<path d="M2830 3652 c0 -4 17 -25 38 -45 l38 -37 260 0 260 0 37 38 c20 21 37
41 37 45 0 4 -151 7 -335 7 -184 0 -335 -4 -335 -8z"/>
<path d="M3550 3615 l-44 -45 59 0 c62 1 81 11 129 68 l19 22 -59 0 c-58 0
-61 -2 -104 -45z"/>
<path d="M3719 3585 l-76 -75 -99 0 c-93 0 -99 -1 -126 -27 -15 -15 -28 -30
-28 -35 0 -4 64 -8 143 -8 l142 0 108 106 c59 58 107 107 107 110 0 2 -21 4
-47 4 -46 0 -51 -3 -124 -75z"/>
<path d="M2980 3506 c0 -6 12 -23 27 -38 27 -28 27 -28 158 -28 l131 0 34 35
c19 19 32 35 29 35 -109 6 -379 3 -379 -4z"/>
<path d="M3100 3384 c0 -4 15 -22 32 -40 l33 -33 32 31 c18 18 33 36 33 40 0
4 -29 8 -65 8 -36 0 -65 -3 -65 -6z"/>
<path d="M3466 2344 c-61 -19 -171 -125 -204 -196 -96 -207 -12 -457 187 -555
76 -38 173 -37 254 2 108 52 196 177 217 311 26 164 -59 341 -201 419 -66 36
-175 44 -253 19z m197 -19 c91 -38 120 -123 121 -355 1 -201 -14 -268 -76
-330 -75 -75 -208 -73 -277 5 -47 54 -63 120 -68 290 -8 237 24 340 118 387
42 22 133 23 182 3z"/>
<path d="M337 2343 c-10 -17 -19 -213 -10 -213 6 0 17 28 27 62 12 44 28 72
55 100 37 36 41 38 105 38 l66 0 0 -365 0 -365 -51 0 c-27 0 -48 -4 -45 -9 3
-5 70 -9 148 -9 144 -1 204 9 113 18 l-50 5 -3 363 -2 362 60 0 c99 0 132 -26
168 -134 11 -31 23 -58 28 -59 10 -2 6 139 -5 181 l-7 27 -297 3 c-162 1 -298
-1 -300 -5z"/>
<path d="M1010 2340 c0 -5 23 -10 50 -10 l50 0 0 -302 c0 -374 4 -385 125
-439 94 -42 239 -26 303 34 44 41 47 58 52 387 l5 315 48 3 c90 6 47 22 -58
22 -63 0 -105 -4 -105 -10 0 -5 20 -10 45 -10 l45 0 0 -307 c0 -300 -1 -309
-23 -347 -28 -49 -62 -75 -115 -87 -88 -19 -180 30 -201 107 -7 24 -11 155
-11 337 l0 297 45 0 c25 0 45 5 45 10 0 6 -57 10 -150 10 -93 0 -150 -4 -150
-10z"/>
<path d="M1750 2341 c0 -6 21 -11 50 -11 l50 0 -2 -362 -3 -363 -48 -3 c-28
-2 -45 -7 -41 -13 7 -12 282 -11 290 2 3 5 -15 9 -40 9 l-46 0 0 190 0 190 55
0 c115 0 150 -48 166 -221 5 -61 14 -119 19 -129 17 -32 53 -50 98 -50 36 0
112 22 112 32 0 2 -17 2 -38 0 -25 -3 -42 1 -51 11 -7 9 -16 64 -21 127 -9
134 -31 176 -104 206 -25 11 -46 22 -46 26 0 3 15 12 34 18 152 50 163 256 18
323 -42 20 -67 22 -249 25 -140 2 -203 0 -203 -7z m384 -23 c37 -16 57 -52 63
-113 8 -75 -4 -141 -32 -173 -22 -25 -30 -27 -114 -30 l-91 -4 0 166 0 166 75
0 c41 0 85 -5 99 -12z"/>
<path d="M2460 2340 c0 -5 20 -10 45 -10 l44 0 3 -342 c2 -189 2 -353 0 -365
-3 -20 -9 -23 -48 -23 -29 0 -43 -4 -39 -11 7 -11 182 -11 200 0 6 3 -12 8
-40 11 l-50 5 -3 338 c-1 185 1 337 5 337 5 0 20 -19 34 -42 14 -24 63 -104
109 -178 124 -202 219 -358 257 -422 23 -39 40 -58 53 -58 19 0 20 10 20 375
l0 375 50 0 c28 0 50 5 50 10 0 6 -42 10 -105 10 -63 0 -105 -4 -105 -10 0 -5
20 -10 45 -10 l45 0 0 -272 0 -273 -29 45 c-39 62 -247 403 -285 468 l-30 52
-113 0 c-69 0 -113 -4 -113 -10z"/>
<path d="M3980 2341 c0 -6 21 -11 47 -13 l46 -3 53 -155 c30 -85 83 -243 119
-350 79 -233 85 -250 95 -250 5 0 34 80 65 178 31 97 86 268 122 380 l65 202
39 0 c21 0 39 5 39 10 0 6 -40 10 -100 10 -60 0 -100 -4 -100 -10 0 -5 20 -10
45 -10 29 0 45 -4 45 -12 0 -7 -29 -103 -64 -213 -36 -110 -75 -233 -87 -272
-13 -40 -25 -73 -29 -73 -4 0 -160 443 -190 543 -9 27 -8 27 41 27 27 0 49 5
49 10 0 6 -57 10 -150 10 -88 0 -150 -4 -150 -9z"/>
<path d="M4720 2341 c0 -6 21 -11 48 -13 l47 -3 3 -340 c1 -187 0 -350 -3
-362 -5 -20 -12 -23 -51 -23 -28 0 -43 -4 -39 -10 9 -14 520 -13 546 0 17 10
19 22 19 114 0 56 -3 106 -7 110 -4 4 -15 -24 -26 -61 -35 -128 -72 -153 -234
-153 l-93 0 0 190 0 190 54 0 c30 0 62 -3 71 -6 19 -8 45 -55 45 -84 0 -11 5
-20 10 -20 6 0 10 47 10 122 0 123 -7 137 -30 65 -15 -46 -34 -57 -104 -57
l-56 0 0 165 0 165 100 0 c71 0 110 -5 130 -15 34 -18 67 -75 76 -134 4 -23
10 -41 15 -41 10 0 12 170 3 194 -5 14 -39 16 -270 16 -159 0 -264 -4 -264 -9z"/>
<path d="M5370 2341 c0 -6 22 -11 50 -11 l50 0 0 -365 0 -365 -51 0 c-32 0
-48 -4 -44 -10 8 -13 276 -12 296 1 9 6 -4 9 -39 9 l-52 0 2 188 3 187 67 -1
c108 -1 136 -39 149 -206 13 -156 34 -188 124 -188 40 0 115 22 115 33 0 3
-20 2 -44 0 -57 -7 -62 4 -68 127 -6 135 -47 204 -131 225 -36 10 -34 18 9 34
46 17 98 63 114 101 19 46 8 123 -23 164 -15 18 -48 45 -74 57 -45 22 -61 24
-250 27 -138 2 -203 0 -203 -7z m390 -26 c43 -22 60 -63 60 -145 0 -136 -32
-170 -157 -170 l-83 0 0 165 0 165 75 0 c48 0 87 -6 105 -15z"/>
<path d="M4425 769 c-11 -17 0 -20 21 -4 17 13 17 14 2 15 -9 0 -20 -5 -23
-11z"/>
<path d="M1450 620 c0 -67 4 -110 10 -110 6 0 10 20 10 45 l0 45 46 0 c31 0
44 4 42 12 -2 6 -22 12 -44 12 -39 1 -39 1 -39 41 l0 40 53 3 c71 4 56 22 -19
22 l-59 0 0 -110z"/>
<path d="M1812 713 c-27 -50 -82 -196 -77 -201 8 -8 35 27 35 45 0 9 17 13 56
13 53 0 56 -2 67 -30 12 -31 27 -40 27 -17 0 24 -76 201 -87 204 -7 3 -16 -4
-21 -14z m37 -60 c8 -21 16 -44 18 -50 4 -9 -7 -13 -36 -13 -23 0 -41 3 -41 7
0 15 33 93 39 93 4 0 13 -17 20 -37z"/>
<path d="M2131 716 c-33 -18 -50 -53 -51 -104 0 -62 40 -102 102 -102 41 0 68
13 68 32 0 5 -9 4 -19 -2 -100 -53 -180 94 -85 156 21 15 33 16 65 7 41 -11
53 -1 20 17 -27 14 -71 12 -100 -4z"/>
<path d="M2410 721 c0 -6 15 -11 33 -13 l32 -3 5 -95 c3 -53 9 -95 15 -95 6 0
12 42 15 95 l5 95 33 3 c18 2 30 8 27 13 -8 12 -165 12 -165 0z"/>
<path d="M2741 640 c4 -82 6 -94 28 -111 34 -28 92 -25 121 6 20 22 24 35 24
107 1 56 -3 82 -11 85 -10 4 -13 -15 -13 -74 0 -91 -15 -123 -58 -123 -50 0
-57 13 -62 106 -3 61 -9 89 -19 92 -10 3 -12 -14 -10 -88z"/>
<path d="M3104 717 c-9 -24 1 -202 11 -202 6 0 11 19 13 43 4 57 29 56 71 -3
18 -25 36 -45 42 -45 14 0 11 7 -21 51 l-30 41 25 20 c32 25 34 71 3 92 -28
20 -107 21 -114 3z m108 -29 c20 -33 -7 -68 -53 -68 -28 0 -29 2 -29 46 l0 47
37 -6 c20 -4 40 -12 45 -19z"/>
<path d="M3483 713 c-3 -10 -21 -56 -39 -102 -36 -91 -39 -101 -25 -101 5 0
14 14 20 30 9 28 13 30 65 30 51 0 55 -2 65 -30 5 -16 15 -30 20 -30 6 0 11 2
11 5 0 6 -37 101 -54 140 -8 17 -17 40 -21 53 -8 26 -33 29 -42 5z m50 -80
l17 -43 -45 0 -44 0 14 41 c26 73 31 73 58 2z"/>
<path d="M3810 717 c-64 -32 -76 -128 -23 -181 30 -30 96 -36 129 -12 17 13
13 14 -37 9 -52 -5 -57 -4 -77 22 -26 33 -29 91 -7 122 19 27 75 39 105 23 28
-15 41 -3 16 16 -24 17 -73 18 -106 1z"/>
<path d="M4110 620 c0 -91 3 -110 15 -110 12 0 15 19 15 110 0 91 -3 110 -15
110 -12 0 -15 -19 -15 -110z"/>
<path d="M4371 716 c-33 -18 -50 -53 -51 -104 0 -35 6 -49 29 -73 42 -42 110
-42 152 0 24 25 29 38 29 79 0 45 -4 53 -35 81 -39 34 -82 40 -124 17z m93
-18 c29 -13 39 -36 39 -92 0 -60 -56 -93 -118 -70 -26 11 -48 62 -40 101 12
64 60 89 119 61z"/>
<path d="M4705 717 c-11 -28 0 -200 13 -205 9 -3 12 17 12 77 0 45 3 81 8 81
4 -1 33 -37 65 -80 33 -44 63 -80 68 -80 5 0 9 50 9 112 0 129 -17 140 -22 14
l-3 -79 -63 81 c-70 90 -80 99 -87 79z"/>
<path d="M4132 302 c-18 -12 -13 -213 6 -220 9 -3 12 24 12 112 0 64 -1 116
-2 116 -2 0 -9 -4 -16 -8z"/>
<path d="M1494 287 c-3 -8 -3 -56 -2 -108 l3 -94 63 -3 c38 -2 62 1 62 8 0 5
-22 10 -51 10 l-50 0 3 43 c3 41 4 42 43 48 l40 6 -42 2 -43 1 0 40 0 40 49 0
c28 0 53 5 56 10 4 6 -18 10 -60 10 -45 0 -67 -4 -71 -13z"/>
<path d="M1810 298 c-1 -2 -1 -50 -2 -108 l-1 -105 56 -3 c35 -2 57 1 57 8 0
5 -20 10 -45 10 l-45 0 0 94 c0 53 -4 98 -10 101 -5 3 -10 5 -10 3z"/>
<path d="M2092 193 l3 -108 63 -3 c38 -2 62 1 62 8 0 5 -22 10 -51 10 l-50 0
3 43 c3 41 4 42 43 48 l40 6 -42 2 -43 1 0 40 0 40 50 0 c28 0 50 5 50 10 0 6
-28 10 -65 10 l-66 0 3 -107z"/>
<path d="M2419 271 c-24 -25 -29 -38 -29 -80 0 -73 30 -106 99 -106 27 0 56 6
62 12 19 19 6 24 -27 11 -68 -25 -124 29 -110 106 9 50 43 71 101 63 25 -4 45
-3 45 2 0 13 -27 21 -72 21 -30 0 -46 -7 -69 -29z"/>
<path d="M2720 290 c0 -5 16 -10 35 -10 l35 0 0 -101 c0 -76 3 -100 13 -97 8
3 13 35 15 101 l3 97 34 0 c19 0 35 5 35 10 0 6 -35 10 -85 10 -50 0 -85 -4
-85 -10z"/>
<path d="M3056 292 c-7 -11 -7 -179 0 -197 12 -29 24 -14 24 29 0 75 21 69
103 -33 8 -10 12 -11 15 -3 2 7 -8 26 -22 43 -31 37 -32 50 -6 67 24 15 27 64
4 86 -16 17 -109 23 -118 8z m102 -24 c30 -30 0 -78 -49 -78 -28 0 -29 2 -29
45 0 44 1 45 33 45 18 0 38 -5 45 -12z"/>
<path d="M3399 271 c-52 -52 -33 -157 32 -180 44 -15 66 -14 100 6 39 23 61
80 48 126 -22 79 -122 105 -180 48z m145 -32 c17 -32 18 -42 8 -76 -29 -98
-162 -74 -162 29 0 57 36 90 93 86 37 -3 44 -7 61 -39z"/>
<path d="M3754 287 c-9 -24 1 -202 11 -200 6 2 12 40 15 85 l5 82 60 -81 c33
-45 66 -84 73 -87 9 -4 12 20 12 105 0 71 -4 108 -10 104 -5 -3 -10 -40 -10
-81 0 -41 -3 -74 -7 -73 -5 0 -35 36 -68 79 -61 81 -72 90 -81 67z"/>
<path d="M4377 289 c-24 -14 -47 -62 -47 -99 0 -48 25 -87 65 -100 36 -12 90
-6 101 11 9 16 -5 24 -18 11 -18 -18 -62 -14 -91 8 -33 26 -42 69 -23 114 16
40 46 52 102 43 34 -6 47 6 18 17 -24 9 -87 7 -107 -5z"/>
<path d="M4717 233 c-14 -38 -32 -85 -41 -105 -10 -23 -12 -39 -6 -43 6 -3 15
6 21 22 13 35 25 43 72 43 33 0 40 -5 58 -35 39 -66 37 -25 -5 80 -50 128 -63
133 -99 38z m67 -16 c9 -23 16 -46 16 -50 0 -4 -18 -7 -40 -7 -22 0 -40 3 -40
7 0 16 33 93 40 93 4 0 15 -19 24 -43z"/>
</g>
</svg>
