<svg xmlns="http://www.w3.org/2000/svg" xmlns:xlink="http://www.w3.org/1999/xlink" viewBox="0 0 40 40"><defs><style>.cls-1{fill:url(#Degradado_sin_nombre_107);}.cls-2{fill:#fff;}</style><linearGradient id="Degradado_sin_nombre_107" x1="8.21" y1="-6.73" x2="48.37" y2="84.31" gradientUnits="userSpaceOnUse"><stop offset="0.08" stop-color="#b380e6"/><stop offset="1" stop-color="#6a4d83"/></linearGradient></defs><title>usuarios</title><g id="Capa_2" data-name="Capa 2"><g id="Capa_1-2" data-name="Capa 1"><rect class="cls-1" width="40" height="40" rx="8.25"/><path class="cls-2" d="M20.58,30H19.41l-.08,0-.51,0a9.31,9.31,0,0,1-2.26-.54,9.88,9.88,0,0,1-3-1.79A10,10,0,0,1,11.4,25a9.8,9.8,0,0,1-1.34-4.34,10.69,10.69,0,0,1,.07-2,9,9,0,0,1,.63-2.4,9.85,9.85,0,0,1,3.45-4.36,9.74,9.74,0,0,1,5.32-1.85,9.61,9.61,0,0,1,2.62.22,9.9,9.9,0,0,1,3,1.19,10,10,0,0,1,3.62,3.78,9.75,9.75,0,0,1,1.18,4,1,1,0,0,0,0,.17v1.16a.79.79,0,0,0,0,.13c0,.34-.07.67-.12,1a9.54,9.54,0,0,1-1.27,3.43,9.93,9.93,0,0,1-3.78,3.61,9.6,9.6,0,0,1-4,1.18A1,1,0,0,0,20.58,30ZM19.91,11.2c-.21,0-.51,0-.81.05a5.81,5.81,0,0,0-.71.11,8.45,8.45,0,0,0-3,1.15,8.79,8.79,0,0,0-3.29,3.6,8.59,8.59,0,0,0-.9,3.65,9.2,9.2,0,0,0,.1,1.57,8.22,8.22,0,0,0,.48,1.83,8.53,8.53,0,0,0,1.45,2.45l.06.08s.06,0,.08,0l0-.09a6.41,6.41,0,0,1,.9-2,6.74,6.74,0,0,1,3.12-2.54c.22-.09.22-.1,0-.24a4.21,4.21,0,0,1-1.64-3.64,4,4,0,0,1,.32-1.33,4.09,4.09,0,0,1,3.17-2.48,3.9,3.9,0,0,1,3.05.67,4.07,4.07,0,0,1,1.76,4.18,4,4,0,0,1-.83,1.86,4.55,4.55,0,0,1-.84.8c-.1.08-.1.08,0,.13l.07,0a6.78,6.78,0,0,1,3.88,4c.07.2.13.41.19.61s.05.07.09,0l.05-.06a8.85,8.85,0,0,0,1.14-1.74,8,8,0,0,0,.58-1.52,9.52,9.52,0,0,0,.3-1.85,7.94,7.94,0,0,0-.15-2.23,8.64,8.64,0,0,0-3-5.05A8.75,8.75,0,0,0,19.91,11.2ZM20,28.8a9.35,9.35,0,0,0,1.66-.17A8.75,8.75,0,0,0,23.59,28a8.88,8.88,0,0,0,2-1.22c.05,0,.08-.07.07-.14A5.92,5.92,0,0,0,25,24.74a5.72,5.72,0,0,0-1.29-1.61,5.62,5.62,0,0,0-3.52-1.39,5.83,5.83,0,0,0-1.32.1,5.73,5.73,0,0,0-2.2,1,5.59,5.59,0,0,0-1.51,1.63,5.47,5.47,0,0,0-.79,2.17.18.18,0,0,0,.08.21,8.77,8.77,0,0,0,2.16,1.29A8.93,8.93,0,0,0,20,28.8Zm0-8.28a3,3,0,1,0-3-3A3,3,0,0,0,20,20.52Z"/></g></g></svg>